# xmcd
#
# Track frame offsets:
#	150
#	16407
#	34092
#	49997
#	64847
#	79840
#	106952
#	116320
#	130292
#	146015
#	156770
#
# Disc length: 2352 seconds
#
# Revision: 1
# Processed by: cddbd v1.4PL0 Copyright (c) Steve Scherf et al.
# Submitted via: CDmax 2.0
#
DISCID=92092e0b
DTITLE=Leika and The Waiters - Let It Be
DYEAR=1994
DGENRE=Blues
TTITLE0=One after 909
TTITLE1=Drive My Car
TTITLE2=I Call Your Name
TTITLE3=For No One
TTITLE4=Every Little Thing
TTITLE5=Fool on the Hill
TTITLE6=Let It be
TTITLE7=I Will
TTITLE8=Her, There and Everywhere
TTITLE9=I'll Follow the Sun
TTITLE10=Good Night
EXTD=Leika and The Waiters are :\nLeika Nakamura\t\t\tvocal\nTetsuya "Weeping W
EXTD=illow" Nakamura\tharmonica\nKazuhiro "Dynamite" Ishizuka\tguitar\nTani-Y
EXTD=an\t\t\t\tbass\n\nAdditional musician\nKaz Minamisawa\t\t\tguitar [M-5]\
EXTD=n\nProduced and arranged by Leika and The Waiters\nRecorded and mixed by Junic
EXTD=hi Seyama at Eggs and Shep Studio
EXTT0=
EXTT1=
EXTT2=
EXTT3=
EXTT4=
EXTT5=
EXTT6=
EXTT7=
EXTT8=
EXTT9=
EXTT10=
PLAYORDER=
